# xmcd
#
# Track frame offsets: 
#        150
#        29937
#        64021
#        98211
#        145240
#        174240
#        199290
#
# Disc length: 3398 seconds
#
# Revision: 0
# Processed by: cddbd v1.5.2PL0 Copyright (c) Steve Scherf et al.
# Submitted via: ExactAudioCopy v1.0b3
#
DISCID=650d4407
DTITLE=Andreas Andersson - Aquaeum - Tales of Water
DYEAR=2009
DGENRE=New Age
TTITLE0=Sunrise at Timberline
TTITLE1=Following the Brook
TTITLE2=Peaceful Shore
TTITLE3=Tranquil Blue
TTITLE4=Jazzy Dolphins
TTITLE5=Floating in Serenity
TTITLE6=Secret Voyage
EXTD=
EXTT0=
EXTT1=
EXTT2=
EXTT3=
EXTT4=
EXTT5=
EXTT6=
PLAYORDER=
